<svg xmlns="http://www.w3.org/2000/svg" width="1024" height="1024" viewBox="0 0 1024 1024">
<g>
<path d="M 491.40 546.45 L 489.30 553.50 L 484.15 553.80 C481.32,553.97 479.00,553.80 479.00,553.42 C479.00,553.05 481.18,549.76 483.86,546.12 C486.53,542.48 492.18,531.92 496.43,522.65 L 504.15 505.80 L 500.01 500.90 L 495.88 496.00 L 507.69 496.02 L 519.50 496.05 L 526.50 511.59 C530.35,520.14 533.78,527.31 534.11,527.54 C534.45,527.76 537.04,522.97 539.88,516.88 L 545.03 505.81 L 540.89 500.87 L 536.76 495.93 L 560.33 496.50 L 570.25 517.93 C575.70,529.71 581.94,541.96 584.11,545.16 C584.43,545.63 584.74,546.08 585.03,546.51 C587.52,550.15 588.80,552.03 588.30,553.00 C587.78,554.02 585.25,554.01 580.04,554.00 C579.47,554.00 578.87,554.00 578.23,554.00 C570.60,554.00 566.96,553.62 566.31,552.75 C565.80,552.06 564.59,548.80 563.61,545.50 C561.64,538.81 549.09,511.00 548.05,511.00 C547.69,511.00 543.15,520.26 537.96,531.58 C532.78,542.91 528.25,552.34 527.91,552.56 C527.56,552.77 522.98,543.64 517.74,532.26 C512.49,520.88 507.81,511.44 507.35,511.29 C506.18,510.92 493.97,537.82 491.40,546.45 ZM 199.53 551.75 C200.03,553.97 199.91,554.00 189.69,554.00 C183.99,554.00 179.10,553.77 178.82,553.48 C178.53,553.20 178.95,549.26 179.74,544.73 C181.28,535.90 180.98,509.82 179.23,500.75 L 178.32 496.00 L 199.69 496.00 L 198.38 502.75 C197.66,506.46 197.06,511.64 197.04,514.25 L 197.00 519.00 L 236.00 519.00 L 236.00 514.75 C236.00,512.41 235.38,507.24 234.61,503.25 L 233.23 496.00 L 244.18 496.00 C254.14,496.00 255.09,496.16 254.62,497.75 C252.91,503.62 252.00,513.09 252.00,525.13 C252.00,537.19 252.42,541.54 254.57,551.75 C255.03,553.97 254.89,554.00 244.69,554.00 C238.99,554.00 234.09,553.76 233.79,553.46 C233.49,553.16 233.87,549.67 234.62,545.71 C235.38,541.74 236.00,535.24 236.00,531.25 L 236.00 524.00 L 197.00 524.00 L 197.02 532.25 C197.05,539.54 197.42,542.49 199.53,551.75 ZM 396.12 549.25 L 394.65 554.00 L 389.32 554.00 C386.40,554.00 384.00,553.76 384.00,553.47 C384.00,553.18 386.41,549.69 389.35,545.72 C394.71,538.48 412.00,508.15 412.00,505.99 C412.00,505.36 410.37,502.85 408.38,500.42 L 404.76 496.00 L 416.13 496.03 L 427.50 496.06 L 439.40 517.78 C445.95,529.73 453.49,542.48 456.15,546.12 C458.82,549.76 461.00,553.04 461.00,553.40 C461.00,553.77 455.51,553.94 448.80,553.78 L 436.60 553.50 L 435.12 548.73 L 433.64 543.96 L 397.60 544.50 ZM 618.32 549.25 L 616.94 554.00 L 611.97 554.00 C609.09,554.00 607.00,553.55 607.00,552.92 C607.00,552.33 608.95,549.29 611.33,546.17 C613.71,543.05 620.01,532.68 625.32,523.12 L 634.97 505.75 L 630.89 500.87 L 626.81 496.00 L 649.57 496.00 L 661.49 517.67 C671.55,535.95 677.28,545.19 683.28,552.78 C684.10,553.81 681.79,554.01 671.50,553.78 L 658.71 553.50 L 657.32 548.73 L 655.93 543.96 L 637.82 544.23 L 619.71 544.50 ZM 947.25 548.25 L 944.75 554.00 L 883.81 554.00 L 884.66 548.75 C885.73,542.05 885.76,507.01 884.69,500.75 L 883.88 496.00 L 945.04 496.00 L 947.36 501.25 C948.64,504.14 949.34,506.64 948.92,506.81 C948.50,506.98 943.02,505.52 936.75,503.56 C926.72,500.43 924.09,500.00 914.81,500.00 L 904.26 500.00 L 903.64 503.75 C903.30,505.81 903.02,510.54 903.01,514.25 L 903.00 521.00 L 911.55 521.00 C916.82,521.00 921.13,520.47 922.80,519.63 C924.28,518.87 926.51,517.94 927.75,517.56 C929.92,516.89 930.00,517.08 930.00,523.38 L 930.00 529.90 L 925.75 527.97 C922.54,526.51 919.21,526.04 912.12,526.02 L 902.74 526.00 L 903.20 537.08 C903.53,545.19 904.04,548.41 905.08,549.07 C905.86,549.56 910.27,549.98 914.88,549.98 C921.85,550.00 925.44,549.33 936.28,545.99 C943.45,543.78 949.41,542.09 949.53,542.24 C949.66,542.38 948.63,545.09 947.25,548.25 ZM 334.50 548.00 L 332.18 553.50 L 301.47 553.76 L 270.77 554.03 L 271.63 549.26 C272.74,543.16 272.76,505.84 271.66,500.25 L 270.82 496.00 L 332.11 496.00 L 334.44 501.25 C335.73,504.14 336.46,506.62 336.08,506.77 C335.70,506.92 330.24,505.46 323.94,503.52 C313.92,500.44 311.18,500.01 301.89,500.00 L 291.27 500.00 L 290.64 504.64 C290.29,507.19 290.00,511.92 290.00,515.14 L 290.00 521.00 L 298.42 521.00 C304.61,521.00 308.07,520.47 311.50,519.00 C314.07,517.90 316.32,517.00 316.50,517.00 C316.68,517.00 316.98,519.93 317.16,523.50 C317.35,527.08 317.37,530.00 317.21,530.00 C317.05,530.00 315.16,529.10 313.00,528.00 C309.88,526.41 307.11,526.00 299.40,526.00 L 289.72 526.00 L 290.24 537.12 C290.62,544.96 291.17,548.50 292.14,549.10 C292.89,549.58 297.33,549.97 302.00,549.98 C309.09,549.99 312.65,549.33 323.44,546.02 C330.56,543.84 336.48,542.15 336.61,542.28 C336.73,542.40 335.78,544.97 334.50,548.00 ZM 708.58 549.75 L 709.21 554.00 L 700.80 554.00 L 701.42 549.25 C703.01,537.25 703.17,511.44 701.71,503.75 L 700.24 496.00 L 704.14 496.00 C707.64,496.00 710.49,497.84 732.00,514.00 C745.18,523.90 756.25,532.00 756.60,532.00 C757.43,532.00 756.42,501.18 755.48,498.25 C754.81,496.13 755.05,496.00 759.50,496.00 C764.18,496.00 764.22,496.03 763.49,498.75 C763.08,500.26 762.54,513.31 762.30,527.75 C761.86,553.53 761.82,554.00 759.77,554.00 C758.63,554.00 746.58,545.67 733.00,535.50 C719.42,525.33 707.96,517.00 707.54,517.00 C706.72,517.00 707.54,542.68 708.58,549.75 ZM 128.54 550.75 L 129.23 554.00 L 107.77 554.00 L 108.44 550.75 C109.50,545.56 110.29,513.57 109.53,506.48 L 108.84 500.00 L 104.31 500.00 C101.82,500.00 94.63,501.61 88.35,503.57 C82.06,505.53 76.53,506.99 76.06,506.82 C75.59,506.64 76.17,504.14 77.35,501.25 L 79.50 496.00 L 157.50 496.00 L 159.66 501.50 C160.85,504.53 161.47,507.00 161.04,507.00 C160.61,507.00 155.14,505.43 148.88,503.50 C142.62,501.58 135.39,500.00 132.82,500.00 L 128.14 500.00 L 127.47 505.36 C126.70,511.54 127.51,545.91 128.54,550.75 ZM 834.64 552.25 C835.09,553.84 834.16,554.00 824.73,554.00 C819.01,554.00 814.09,553.76 813.79,553.46 C813.49,553.16 813.87,549.67 814.62,545.71 C816.26,537.10 816.44,512.17 814.92,505.05 L 813.83 500.00 L 809.74 500.00 C807.48,500.00 800.29,501.63 793.76,503.61 C787.23,505.60 781.66,506.99 781.38,506.71 C781.09,506.43 781.85,503.90 783.05,501.10 L 785.25 496.00 L 862.66 496.00 L 865.00 501.00 C866.29,503.75 867.08,506.26 866.75,506.58 C866.43,506.90 861.01,505.55 854.69,503.58 C840.96,499.29 834.59,498.89 833.52,502.25 C833.12,503.49 832.57,511.68 832.28,520.45 C831.81,534.73 832.56,544.82 834.64,552.25 ZM 622.18 538.59 C621.91,539.76 624.62,540.00 637.93,540.00 C646.77,540.00 654.00,539.71 654.00,539.36 C654.00,538.36 638.56,510.06 638.00,510.04 C637.38,510.02 622.62,536.65 622.18,538.59 ZM 400.00 538.86 C400.00,540.16 430.55,540.54 431.35,539.25 C431.77,538.56 417.85,512.45 416.14,510.74 C415.37,509.97 400.00,536.76 400.00,538.86 Z" fill="rgb(201,140,52)"/>
<path d="M 0.00 512.00 L 0.00 0.00 L 512.00 0.00 L 1024.00 0.00 L 1024.00 512.00 L 1024.00 1024.00 L 512.00 1024.00 L 0.00 1024.00 L 0.00 512.00 ZM 128.54 550.75 C127.51,545.91 126.70,511.54 127.47,505.36 L 128.14 500.00 L 132.82 500.00 C135.39,500.00 142.62,501.58 148.88,503.50 C155.14,505.43 160.61,507.00 161.04,507.00 C161.47,507.00 160.85,504.53 159.66,501.50 L 157.50 496.00 L 118.50 496.00 L 79.50 496.00 L 77.35 501.25 C76.17,504.14 75.59,506.64 76.06,506.82 C76.53,506.99 82.06,505.53 88.35,503.57 C94.63,501.61 101.82,500.00 104.31,500.00 L 108.84 500.00 L 109.53 506.48 C110.29,513.57 109.50,545.56 108.44,550.75 L 107.77 554.00 L 118.50 554.00 L 129.23 554.00 L 128.54 550.75 ZM 199.53 551.75 C197.42,542.49 197.05,539.54 197.02,532.25 L 197.00 524.00 L 216.50 524.00 L 236.00 524.00 L 236.00 531.25 C236.00,535.24 235.38,541.74 234.62,545.71 C233.87,549.67 233.49,553.16 233.79,553.46 C234.09,553.76 238.99,554.00 244.69,554.00 C254.89,554.00 255.03,553.97 254.57,551.75 C252.42,541.54 252.00,537.19 252.00,525.13 C252.00,513.09 252.91,503.62 254.62,497.75 C255.09,496.16 254.14,496.00 244.18,496.00 L 233.23 496.00 L 234.61 503.25 C235.38,507.24 236.00,512.41 236.00,514.75 L 236.00 519.00 L 216.50 519.00 L 197.00 519.00 L 197.04 514.25 C197.06,511.64 197.66,506.46 198.38,502.75 L 199.69 496.00 L 189.00 496.00 L 178.32 496.00 L 179.23 500.75 C180.98,509.82 181.28,535.90 179.74,544.73 C178.95,549.26 178.53,553.20 178.82,553.48 C179.10,553.77 183.99,554.00 189.69,554.00 C199.91,554.00 200.03,553.97 199.53,551.75 ZM 334.50 548.00 C335.78,544.97 336.73,542.40 336.61,542.28 C336.48,542.15 330.56,543.84 323.44,546.02 C312.65,549.33 309.09,549.99 302.00,549.98 C297.33,549.97 292.89,549.58 292.14,549.10 C291.17,548.50 290.62,544.96 290.24,537.12 L 289.72 526.00 L 299.40 526.00 C307.11,526.00 309.88,526.41 313.00,528.00 C315.16,529.10 317.05,530.00 317.21,530.00 C317.37,530.00 317.35,527.08 317.16,523.50 C316.98,519.93 316.68,517.00 316.50,517.00 C316.32,517.00 314.07,517.90 311.50,519.00 C308.07,520.47 304.61,521.00 298.42,521.00 L 290.00 521.00 L 290.00 515.14 C290.00,511.92 290.29,507.19 290.64,504.64 L 291.27 500.00 L 301.89 500.00 C311.18,500.01 313.92,500.44 323.94,503.52 C330.24,505.46 335.70,506.92 336.08,506.77 C336.46,506.62 335.73,504.14 334.44,501.25 L 332.11 496.00 L 301.47 496.00 L 270.82 496.00 L 271.66 500.25 C272.76,505.84 272.74,543.16 271.63,549.26 L 270.77 554.03 L 301.47 553.76 L 332.18 553.50 L 334.50 548.00 ZM 396.12 549.25 L 397.60 544.50 L 415.62 544.23 L 433.64 543.96 L 435.12 548.73 L 436.60 553.50 L 448.80 553.78 C455.51,553.94 461.00,553.77 461.00,553.40 C461.00,553.04 458.82,549.76 456.15,546.12 C453.49,542.48 445.95,529.73 439.40,517.78 L 427.50 496.06 L 416.13 496.03 L 404.76 496.00 L 408.38 500.42 C410.37,502.85 412.00,505.36 412.00,505.99 C412.00,508.15 394.71,538.48 389.35,545.72 C386.41,549.69 384.00,553.18 384.00,553.47 C384.00,553.76 386.40,554.00 389.32,554.00 L 394.65 554.00 L 396.12 549.25 ZM 491.40 546.45 C493.97,537.82 506.18,510.92 507.35,511.29 C507.81,511.44 512.49,520.88 517.74,532.26 C522.98,543.64 527.56,552.77 527.91,552.56 C528.25,552.34 532.78,542.91 537.96,531.58 C543.15,520.26 547.69,511.00 548.05,511.00 C549.09,511.00 561.64,538.81 563.61,545.50 C564.59,548.80 565.80,552.06 566.31,552.75 C566.96,553.62 570.60,554.00 578.23,554.00 C590.78,554.00 590.45,554.50 584.11,545.16 C581.94,541.96 575.70,529.71 570.25,517.93 L 560.33 496.50 L 548.54 496.22 L 536.76 495.93 L 540.89 500.87 L 545.03 505.81 L 539.88 516.88 C537.04,522.97 534.45,527.76 534.11,527.54 C533.78,527.31 530.35,520.14 526.50,511.59 L 519.50 496.05 L 507.69 496.02 L 495.88 496.00 L 500.01 500.90 L 504.15 505.80 L 496.43 522.65 C492.18,531.92 486.53,542.48 483.86,546.12 C481.18,549.76 479.00,553.05 479.00,553.42 C479.00,553.80 481.32,553.97 484.15,553.80 L 489.30 553.50 L 491.40 546.45 ZM 618.32 549.25 L 619.71 544.50 L 637.82 544.23 L 655.93 543.96 L 657.32 548.73 L 658.71 553.50 L 671.50 553.78 C681.79,554.01 684.10,553.81 683.28,552.78 C677.28,545.19 671.55,535.95 661.49,517.67 L 649.57 496.00 L 638.19 496.00 L 626.81 496.00 L 630.89 500.87 L 634.97 505.75 L 625.32 523.12 C620.01,532.68 613.71,543.05 611.33,546.17 C608.95,549.29 607.00,552.33 607.00,552.92 C607.00,553.55 609.09,554.00 611.97,554.00 L 616.94 554.00 L 618.32 549.25 ZM 708.58 549.75 C707.54,542.68 706.72,517.00 707.54,517.00 C707.96,517.00 719.42,525.33 733.00,535.50 C746.58,545.67 758.63,554.00 759.77,554.00 C761.82,554.00 761.86,553.53 762.30,527.75 C762.54,513.31 763.08,500.26 763.49,498.75 C764.22,496.03 764.18,496.00 759.50,496.00 C755.05,496.00 754.81,496.13 755.48,498.25 C756.42,501.18 757.43,532.00 756.60,532.00 C756.25,532.00 745.18,523.90 732.00,514.00 C710.49,497.84 707.64,496.00 704.14,496.00 L 700.24 496.00 L 701.71 503.75 C703.17,511.44 703.01,537.25 701.42,549.25 L 700.80 554.00 L 705.00 554.00 L 709.21 554.00 L 708.58 549.75 ZM 834.64 552.25 C832.56,544.82 831.81,534.73 832.28,520.45 C832.57,511.68 833.12,503.49 833.52,502.25 C834.59,498.89 840.96,499.29 854.69,503.58 C861.01,505.55 866.43,506.90 866.75,506.58 C867.08,506.26 866.29,503.75 865.00,501.00 L 862.66 496.00 L 823.95 496.00 L 785.25 496.00 L 783.05 501.10 C781.85,503.90 781.09,506.43 781.38,506.71 C781.66,506.99 787.23,505.60 793.76,503.61 C800.29,501.63 807.48,500.00 809.74,500.00 L 813.83 500.00 L 814.92 505.05 C816.44,512.17 816.26,537.10 814.62,545.71 C813.87,549.67 813.49,553.16 813.79,553.46 C814.09,553.76 819.01,554.00 824.73,554.00 C834.16,554.00 835.09,553.84 834.64,552.25 ZM 947.25 548.25 C948.63,545.09 949.66,542.38 949.53,542.24 C949.41,542.09 943.45,543.78 936.28,545.99 C925.44,549.33 921.85,550.00 914.88,549.98 C910.27,549.98 905.86,549.56 905.08,549.07 C904.04,548.41 903.53,545.19 903.20,537.08 L 902.74 526.00 L 912.12 526.02 C919.21,526.04 922.54,526.51 925.75,527.97 L 930.00 529.90 L 930.00 523.38 C930.00,517.08 929.92,516.89 927.75,517.56 C926.51,517.94 924.28,518.87 922.80,519.63 C921.13,520.47 916.82,521.00 911.55,521.00 L 903.00 521.00 L 903.01 514.25 C903.02,510.54 903.30,505.81 903.64,503.75 L 904.26 500.00 L 914.81 500.00 C924.09,500.00 926.72,500.43 936.75,503.56 C943.02,505.52 948.50,506.98 948.92,506.81 C949.34,506.64 948.64,504.14 947.36,501.25 L 945.04 496.00 L 914.46 496.00 L 883.88 496.00 L 884.69 500.75 C885.76,507.01 885.73,542.05 884.66,548.75 L 883.81 554.00 L 914.28 554.00 L 944.75 554.00 L 947.25 548.25 ZM 400.00 538.86 C400.00,536.76 415.37,509.97 416.14,510.74 C417.85,512.45 431.77,538.56 431.35,539.25 C430.55,540.54 400.00,540.16 400.00,538.86 ZM 622.18 538.59 C622.62,536.65 637.38,510.02 638.00,510.04 C638.56,510.06 654.00,538.36 654.00,539.36 C654.00,539.71 646.77,540.00 637.93,540.00 C624.62,540.00 621.91,539.76 622.18,538.59 Z" fill="rgb(254,254,254)"/>
</g>
</svg>